<svg width="62" height="62" viewBox="0 0 62 62" fill="none" xmlns="http://www.w3.org/2000/svg">
<g filter="url(#filter0_d_968:1882)">
<circle cx="30.8015" cy="27.114" r="26.8015" fill="#E7F4EE"/>
<path d="M19.2402 32.8946C21.2718 32.8946 22.9188 31.2476 22.9188 29.216C22.9188 27.1843 21.2718 25.5374 19.2402 25.5374C17.2085 25.5374 15.5615 27.1843 15.5615 29.216C15.5615 31.2476 17.2085 32.8946 19.2402 32.8946Z" fill="#008248"/>
<path d="M31.3272 28.6905C33.6491 28.6905 35.5314 27.0435 35.5314 25.0118C35.5314 22.9802 33.6491 21.3332 31.3272 21.3332C29.0053 21.3332 27.123 22.9802 27.123 25.0118C27.123 27.0435 29.0053 28.6905 31.3272 28.6905Z" fill="#129F60"/>
<path d="M43.414 32.8946C45.4456 32.8946 47.0926 31.2476 47.0926 29.216C47.0926 27.1843 45.4456 25.5374 43.414 25.5374C41.3823 25.5374 39.7354 27.1843 39.7354 29.216C39.7354 31.2476 41.3823 32.8946 43.414 32.8946Z" fill="#008248"/>
</g>
<defs>
<filter id="filter0_d_968:1882" x="0" y="0.3125" width="61.6025" height="61.6029" filterUnits="userSpaceOnUse" color-interpolation-filters="sRGB">
<feFlood flood-opacity="0" result="BackgroundImageFix"/>
<feColorMatrix in="SourceAlpha" type="matrix" values="0 0 0 0 0 0 0 0 0 0 0 0 0 0 0 0 0 0 127 0" result="hardAlpha"/>
<feOffset dy="4"/>
<feGaussianBlur stdDeviation="2"/>
<feComposite in2="hardAlpha" operator="out"/>
<feColorMatrix type="matrix" values="0 0 0 0 0 0 0 0 0 0 0 0 0 0 0 0 0 0 0.25 0"/>
<feBlend mode="normal" in2="BackgroundImageFix" result="effect1_dropShadow_968:1882"/>
<feBlend mode="normal" in="SourceGraphic" in2="effect1_dropShadow_968:1882" result="shape"/>
</filter>
</defs>
</svg>
