<svg width="31" height="27" viewBox="0 0 31 27" fill="none" xmlns="http://www.w3.org/2000/svg">
<path fill-rule="evenodd" clip-rule="evenodd" d="M20.7575 18.3517H11.8341C11.3024 18.9439 10.6665 19.627 10.0743 20.2966C8.73169 21.8141 5.58559 23.0624 5.12798 23.1836C4.67036 23.3047 3.44893 23.2441 4.18246 22.3928C4.91599 21.5415 5.64616 19.3544 5.64616 18.3517H3.53978C1.59492 18.3517 0 16.7669 0 14.8254V3.52296C0 1.58483 1.59492 0 3.53978 0H20.7575C22.7058 0 24.3007 1.58483 24.3007 3.52296V14.8254C24.3007 16.7669 22.7058 18.3517 20.7575 18.3517ZM18.133 7.29155C17.1908 7.29155 16.4237 8.052 16.4237 8.99415C16.4237 9.93293 17.1908 10.6934 18.133 10.6934C19.0785 10.6934 19.8423 9.93293 19.8423 8.99415C19.8423 8.052 19.0785 7.29155 18.133 7.29155ZM12.2715 7.47325C11.3293 7.47325 10.5622 8.23706 10.5622 9.17585C10.5622 10.1146 11.3293 10.8784 12.2715 10.8784C13.217 10.8784 13.9808 10.1146 13.9808 9.17585C13.9808 8.23706 13.217 7.47325 12.2715 7.47325ZM6.40997 7.65495C5.46782 7.65495 4.70065 8.41877 4.70065 9.35755C4.70065 10.2963 5.46782 11.0601 6.40997 11.0601C7.35548 11.0601 8.1193 10.2963 8.1193 9.35755C8.1193 8.41877 7.35548 7.65495 6.40997 7.65495ZM26.9858 5.89515H26.4845C26.5046 6.03311 26.5147 6.17443 26.5147 6.31912V17.0764C26.5147 18.88 25.0309 20.3571 23.2172 20.3571H12.8199C12.1436 21.0907 11.0097 22.3188 11.0097 22.3188C11.0097 22.3188 11.3731 23.2139 12.5171 23.2139H21.6425C21.9891 24.3175 22.9178 25.2428 23.5369 25.7206C24.2098 26.2355 25.3842 26.9488 26.36 26.9959C27.3358 27.0396 27.4434 26.7234 27.2752 26.508C27.1069 26.296 26.619 25.1419 26.4205 24.6237C26.2927 24.2906 26.3061 23.6345 26.3297 23.2139H26.9858C28.7994 23.2139 30.2833 21.7367 30.2833 19.9298V9.17585C30.2833 7.36894 28.7994 5.89515 26.9858 5.89515Z" fill="#008248"/>
</svg>
