<svg width="59" height="60" viewBox="0 0 59 60" fill="none" xmlns="http://www.w3.org/2000/svg">
<rect y="0.824219" width="58.8916" height="58.7358" rx="29.3679" fill="#008248"/>
<path d="M17.0516 17.8376C17.2699 17.633 17.5884 17.5832 17.8571 17.7118L42.6733 29.5823C42.9292 29.7047 43.0924 29.9662 43.0924 30.2536C43.0924 30.541 42.9292 30.8026 42.6733 30.9249L17.8571 42.7954C17.5884 42.9239 17.2699 42.8742 17.0516 42.6696C16.8332 42.465 16.7586 42.1463 16.8629 41.8636L20.8724 30.9955H32.8739C33.277 30.9955 33.6038 30.6633 33.6038 30.2536C33.6038 29.8439 33.277 29.5117 32.8739 29.5117H20.8724L16.8629 18.6436C16.7586 18.3609 16.8332 18.0422 17.0516 17.8376Z" fill="white"/>
</svg>
